<?xml version="1.0" encoding="UTF-8"?><svg xmlns="http://www.w3.org/2000/svg" viewBox="0 0 130 100"><g fill="none" fill-rule="nonzero"><path d="M13.65 31.17s9.6 14.87 11.62 16.9c1.99 1.98 7.27 14.63 7.27 14.63l9.7 11.1s14.15-8.74 25.53-12.4c11.38-3.67 42.87-7.61 44.73-9.5 1.88-1.88-12.48-12.47-15.26-22.75C94.47 18.86 88.4 1.83 88.4 1.83S75.65 16.29 66.26 16.29s-52.6 14.88-52.6 14.88z" fill="#695DB6"/><path d="M106.77 46.8C93.68 32.26 97.6 34.15 87.85 6.15l-.2-.58-.45.44c-4.6 4.6-13.4 12.27-20.9 12.27-7.72 0-36.71 12.99-43.74 16.18.31.61 4.5 8.8 6 10.31 2.54 2.54 5.72 16.63 5.83 17l8.29 9.5c26.97-15.43 28.07-12.4 67.55-20.5-.54-.58-.34-.48-3.46-3.97zm-13.06 6.37c-23.3 4.11-30.4 5.04-50.93 17.07l-7.7-8.84c-1.58-6.72-3.92-15.12-5.97-17.17-.79-.8-3.02-4.63-5.45-9.4 13.06-5.92 36.3-15.76 42.63-15.76 7.58 0 16.25-7.34 21.01-12.03 9.46 27.28 5.7 25.67 18.89 40.3.82.93 1.85 2.06 2.6 2.99-3.39.78-9.83 1.92-15.08 2.84z" fill="#8C80E4"/><path fill="#838BC5" d="M51.52 52.45l15.56 21.32 19.47-12-3.29-12.1z"/><path d="M87.75 57.22s8.7-.59 14.46 5.14c5.76 5.75 19.81 48.29 19.81 48.29s-31.12 7.47-34.24 14.26c0 0 6.31-29.55-5.79-41.65-5.52-5.45-.79-26.04 5.76-26.04z" fill="#ED1E79"/><path d="M87.75 57.22c5.28-.52 11.28 1.4 14.19 4.14 6.72 5.55 17.51 40 20.05 49.32-17.45-44.18-17.34-48.15-26.01-51.75a23.07 23.07 0 00-8.23-1.71z" fill="#770F3D"/><path d="M78.87 27.05s7.95-.4 10.7 7c2.74 7.4 2.43 22.75-1.34 27.1-3.74 4.36-3.12 15.46-6.4 18.75-3.3 3.3-11.66 4.77-11.66-2.94 0 0 4.08.92 5.1-3.88 0 0-5.86 3.74-8.7-1.95-2.85-5.69 3.29-6.24 3.29-6.24s-2.95 3.91.65 3.09c3.6-.86 5.69-4.08 5.69-8.23s-6.1-1.5-5.48-9.12c.65-7.7 5.48-23.85 8.15-23.58z" fill="#0E1B29"/><path d="M74.18 49.23s7.44 16.35 6.34 17.44c-1.1 1.1-3.7 4.43-3.7 4.43s9.32-6.52 9.87-10.83l-5.07-15.5-7.44 4.46z" fill="#FC7575"/><path d="M81.62 44.77l-7.44 4.46s.38.82.92 2.09c2.6-.72 6.62-2.06 7.47-3.56l-.95-2.99z" fill="#FD5E5A"/><path d="M79.83 32.13l-11.2 6.2s-2.34.07-2.34-2.54c0-2.6 2.85-5.14 5.76-6.61a27.7 27.7 0 016.58-2.13l1.2 5.08z" fill="#0E1B29"/><path d="M75.75 29.32s-4.35.75-5.51 2.8c-1.17 2.06-1.48 7-2.64 8.16-1.17 1.17-2.2 1.41-2.2 1.41s-.3.55.86 1.13c1.17.58.28 1.23-.44 1.23s-.1 1.38.44 1.55c0 0-.72.2-.58.89.14.68.48.82.48.82s.03.9-.34 1.75c-.38.86.5 3.36 6.2 2.26 0 0 8.43-1.99 8.94-4.35.52-2.4 4.25-11.04 1.07-14.26-3.2-3.22-6.28-3.4-6.28-3.4z" fill="#FC7575"/><path d="M79.66 26.92s-1.34-.86-6.61.65c-5.28 1.5-6.55 7-6.55 7s3.4-2.3 5.55-2.3c2.16 0 7-.83 7.78-1.62.8-.82-.17-3.73-.17-3.73z" fill="#1B3753"/><path d="M79.08 26.71c-.76 0-5.55 5.04-4.29 9.02 1.27 3.97 4.29 2.19 6.2 3.25 1.93 1.06-.37 5.97-.03 7.95.35 2 5.7 13.34 5.7 13.34s4.48-24 1.78-28.45c-2.71-4.46-9.36-5.1-9.36-5.1z" fill="#1B3753"/><path d="M80.42 39.46s1.54-3.32 2.26-2.6c.72.72 1.06 5.65-1.44 6.1-2.54.48-.82-3.5-.82-3.5z" fill="#FC7575"/><path d="M76.13 41.93c0 .58-1 1.06-2.23 1.06s-2.22-.48-2.22-1.06c0-.58.99-1.06 2.22-1.06 1.24-.04 2.23.44 2.23 1.06zM80.55 39.87s.8-1.81 1.24-1.4c.4.4-.04 3.29-.62 3.29s-.75-.96-.62-1.89z" fill="#FD5E5A"/><path d="M67.22 39.87s1.13 1.17 3.94.24l-3.94-.24zM69.31 37.95s1.1-.65 1.95-.65c.86 0 1.65.35 1.65.65 0 0-.93-.44-1.68-.34-.75.1-1.1.69-1.37.69-.3.03-.55-.35-.55-.35z" fill="#1B3753"/><path d="M37.57 79.08s-5.41.07-5.69.31c-.24.24.21 3.26.21 3.26l2.4 1.74c0 .04 4.52-4.86 3.08-5.3z" fill="#FD5E5A"/><path d="M61.9 54c-6.1-2.75-18.77-1.55-24.9 1.2-3.6 1.64-3.81 1.98-3.5 4.38.68 5.55 2.98 38.01 1.57 44.73-1.37 6.71-2.8 21.76-2.8 21.76s37.08-3.97 46.16 1.78c0 0-9.5-33.86-7.71-43.76 1.78-9.9-3.57-27.32-7.54-29.51-.38-.14-.83-.38-1.27-.59z" fill="#CDA0EF"/><path d="M33.5 59.58c.89 5.52 1.43 11.07 1.88 16.62 1.95 23.93 1.1 22.7-3.12 49.9 1.61-36.5 4.11-3.8 1.24-66.52z" fill="#9A78B3"/><path d="M54.71 38.91l-.55 17.96a3 3 0 01-1.33 2.44c-1.89 1.3-6.93.92-9.33-2.13-1.85-2.36 3.09-18.81 3.09-18.81s4.8-.31 8.12.54z" fill="#FC7575"/><path d="M46.62 38.37s-.17.71-.48 1.88a30 30 0 00.83 6.24c.71 2.6 3.97 7.02 7.3 7.47l.44-15.01c-3.32-.9-8.09-.58-8.09-.58z" fill="#FD5E5A"/><path d="M47.82 16.74c-1.75 2.2-3.19 5.31-1 7.02-2.5-1.5-1.36-5.14.18-7.64l.82.62z" fill="#132759"/><path d="M58.14 26.3s3.7.65 3.87 5.42c.17 4.73-2.81 17.72-6.58 18.7-3.8 1-7.95-3.73-8.74-6.37-.82-2.74-.75-6.99-.75-6.99s.72-17.1 12.2-10.76z" fill="#FC7575"/><path d="M41.86 43.37s.82 1.1 1.88-.2c0 0 2.47-3.02.62-5.52-1.85-2.5-4.63-5.93-3.87-10.25.75-4.32 6-4.01 6-4.01s1.2-6.62 8.43-4.01c0 0 1.47-1.37 5.72-.96 4.28.4 3.12 2.7 5.62 2.43s2.95-2.16 1.95-2.98c0 0 4.15 2.16 4.5 5.59.37 3.42-6.18 3.25-6.18 3.25s5.21.96 1.1 2.98c-4.11 2.03-6.06 1.89-8.4-.65-2.33-2.53-3.63-3.15-4.96-2.67-1.34.48-1.03 3.4-2.99 3.6-1.98.2-3.5 5.31-3.5 5.31s-1.47-.58-1.6 3.05c-.1 3.63.24 5.9-2 6.14-2.22.24-2.32-1.1-2.32-1.1z" fill="#132759"/><path d="M46.93 31.03c-1.13-.2-3.98.51-1.85 4.28 2.12 3.77 4.32.07 4.15-1.57a3.12 3.12 0 00-2.3-2.7z" fill="#FC7575"/><path d="M52.31 44.05s3.67 1.44 5.86 1.03c0 0-.48 1.68-1.75 2.06-1.3.41-3.83-.48-4.1-3.09z" fill="#FFF"/><path d="M45.32 33.26s.07 2.6 1.34 2.64c1.26.03 1.68-1.85.85-2.88-.79-1-2.3-.52-2.19.24z" fill="#FD5E5A"/><path d="M89.4 55.43s0 .07.03.17l.48-.17h-.51zM76.71 72.33c-1.13 7.88-4.76 18.92-10.45 21.08-7.85 2.98-26.18-3.57-26.77-4.11-.55-.55-3.6-7.85-6.3-9.43-2.68-1.58-.72 1.17-1.75 2.23-1.06 1.06-.65 5.69-.65 5.69s-.72 2.7.51 3.97c1.27 1.27 35.23 16.49 39.72 14.77 3.95-1.5 13.78-20.53 17.9-30.3l-12.2-3.9z" fill="#FC7575"/><path d="M76.13 65.99c-.41 2.02-.72 4.76-1.16 7.78l13.6 5.45a37.78 37.78 0 001.34-3.6c9.53-30.1-11.52-21.11-13.78-9.63z" fill="#FA94B9"/><path d="M114.41 85.94c-.3-.69-.47-1.72-.47-3.57 0-1.85-1.17-4.11-2.75-5.69-1.57-1.57-.44-1.88-1.85-1.88-1.4 0-4.9 5.48-7.4 7.98s-31.36 6.58-34.3 4.36l-8.58 10.45c4.53 3.26 8.26 5.38 10.01 5.1 6.17-.92 31.84-14.01 36.06-14.01 4.21 0 10.28-.72 9.28-2.74z" fill="#FD9191"/><path d="M93.71 50.3a11.76 11.76 0 0110.5-.04c1.64.82 2.9 1.99 2.73 3.6-.48 4.25-4.97 8.22-8.7 6-3.74-2.23-8.81-2.64-8.81-2.64l-4.66-2.58 8.94-4.35z" fill="#FD5E5A"/><path d="M80.72 59.37s-3.46 9.12-2.26 11.7c1.2 2.56 2.13-7.75 3.46-9.1 1.34-1.33-.24 13.17.69 13.17 1.68 0 1.99-11.79 3.26-11.79 1.3 0-.9 11.79.68 11.79.86 0 1.75-13.1 2.85-11.96 1.1 1.1-1.27 11.51.27 10 .3-.3 2.98-13.12 3.46-15.96.45-2.68-7.85-2.78-7.85-2.78S78.7 56.5 77.68 59c-1.03 2.5-2.03 6.92-.93 5.82 1.13-1.16 3.01-6.37 3.97-5.45z" fill="#FD5E5A"/><path d="M48.75 57.18c-4.73-4.73-13.6-1.99-13.6-1.99-6.8 3.98-6 11.45-4.57 15.4 1.06 2.9 14.74 21.62 26.19 29.91L67.9 86.8c-2.95-2.23-14.43-24.89-19.16-29.62z" fill="#E1C6F5"/><path d="M50.05 57.63c-3.77-4.29-10-4.25-14.9-2.4 3.7-.72 8.63-.8 11.75 1.33 4.52 2.95 15.56 25.7 21 30.27-2.8-3.22-11.48-21.66-17.85-29.2z" fill="#EDDDF9"/><path d="M70 96.73c-.55-.17-1.1.17-1.3.69-.45 1.13-1 3.97.34 3.97 4.49-.06 3.18-3.97.96-4.66z" fill="#FD5E5A"/><path d="M110.83 11.58s1.98-1.69 4.53-.84c2.25.77 3.06 3.46 2.17 6.03-1 2.94-4.3 5.72-10.8 6.9-4.45-4.87-5.36-9.1-4.36-12.03.88-2.54 3.17-4.22 5.42-3.45a4.83 4.83 0 013.04 3.39z" fill="#FFF" opacity=".6"/><path d="M19.85 11.08s-.27-2.16 1.44-3.53c1.55-1.23 3.8-.58 5.18 1.17 1.61 2.02 2.06 5.59-.03 10.66-5.42.92-8.78-.35-10.39-2.37-1.4-1.75-1.5-4.08 0-5.31 1.75-1.4 3.8-.62 3.8-.62z" fill="#FFF" opacity=".5"/><path d="M17.42 50.4s-.96-1.07-.51-2.47c.37-1.24 1.88-1.72 3.29-1.27 1.64.51 3.22 2.3 3.94 5.86-2.64 2.5-4.94 3.08-6.58 2.57-1.4-.45-2.37-1.68-1.96-2.91a2.59 2.59 0 011.82-1.79z" fill="#FFF" opacity=".6"/><path d="M4.88 39.84s-.96-1.06-.52-2.47c.38-1.23 1.89-1.71 3.3-1.27 1.64.52 3.21 2.3 3.93 5.86-2.63 2.5-4.93 3.09-6.58 2.57-1.4-.44-2.36-1.68-1.95-2.9.41-1.48 1.82-1.8 1.82-1.8z" fill="#FFF" opacity=".3"/><path d="M58.04 37.82c.2.89.27 1.78.23 2.67-.1 1.92-.58 2.67-.61 2.78a13 13 0 01-1.68-.66c.55.07 1.1.21 1.61.31l-.2.1c.47-1.67.47-3.46.65-5.2z" fill="#172866"/><path d="M55.26 37.78c0 .55-.38 1-.82 1-.45 0-.83-.45-.83-1s.38-1 .83-1c.48 0 .82.45.82 1zM61.36 38.1c0 .54-.38.98-.82.98-.45 0-.83-.44-.83-.99s.38-1 .83-1c.48 0 .82.45.82 1z" fill="#2846A6"/><path d="M52.17 35.83s1.24-1.27 2.81-1.27c1.58 0 .86 1.06.52 1.06-.38 0-3.33-.1-3.33.2zM59.95 34.73s1.68.82 1.89 1.61c0 0-1.89-.48-2.13-.96-.27-.44.24-.65.24-.65z" fill="#172866"/></g></svg>
