<svg width="60" height="60" fill="none" xmlns="http://www.w3.org/2000/svg"><path fill="url(#a)" d="M0 0h60v60H0z"/><path d="M49.9 24.6a10.7 10.7 0 0 0-20-3.6c-2-3.6-6-6-10.5-5.4a10.6 10.6 0 0 0-8 15.8l1.1 2c2.3 3.6 6 7 9.4 9.5 2.8 2.2 5.5 3.5 8.1 3.5 2.7 0 5.3-1.3 8-3.5 2.5-1.9 5.2-4.2 7.4-6.7a28 28 0 0 0 3.3-4.9 9.8 9.8 0 0 0 1.2-6.7Z" fill="#FF2D59"/><path d="M49.6 29c.4-1.5.5-3 .3-4.4a10.7 10.7 0 0 0-20-3.6c5.2 9.5 17.3 14.3 19.7 8Z" fill="url(#b)"/><path d="M49.6 29c-2.4 6.3-14.5 1.5-19.6-8a10.6 10.6 0 1 0-18.6 10.4l1.1 2c2.3 3.6 6 7 9.4 9.5 2.8 2.2 5.5 3.5 8.1 3.5 2.7 0 5.3-1.3 8-3.5 2.5-1.9 5.2-4.2 7.4-6.7a28 28 0 0 0 3.3-4.9l1-2.4Z" fill="url(#c)"/><defs><linearGradient id="a" x1="45.1" y1="9.4" x2="24.6" y2="61.2" gradientUnits="userSpaceOnUse"><stop stop-color="#242953"/><stop offset="1" stop-color="#0D0435"/></linearGradient><linearGradient id="b" x1="44.1" y1="20" x2="37" y2="31.6" gradientUnits="userSpaceOnUse"><stop stop-color="#FE2D59"/><stop offset="1" stop-color="#DC0A36"/></linearGradient><linearGradient id="c" x1="21.5" y1="36" x2="55.5" y2="36.4" gradientUnits="userSpaceOnUse"><stop stop-color="#FE2D59"/><stop offset="1" stop-color="#FFA115"/></linearGradient></defs></svg>