<?xml version="1.0" encoding="UTF-8"?><svg width="264" height="264" fill="none" xmlns="http://www.w3.org/2000/svg"><path d="M156 87.4S171.4 42 187.4 42c45.9 28.7 41.3 106.8 41.3 106.8l6.3 13.7S211.3 216 132 216 29 162.5 29 162.5l6.3-13.7S30.7 70.7 76.7 42c16 0 31.4 45.4 31.4 45.4H156Z" fill="#000"/><path d="m248 138-17 9.3C242.4 94 203.3 37 187.3 37c-16.7 0-34.8 45-34.8 45a152 152 0 0 0-20.6-1.2 158 158 0 0 0-20.6 1.1S93.2 37 76.5 37c-16 0-55 56.9-43.5 110.3L16 138s3.9 13.4 10.3 23l-10.1-4s31.3 64 115.8 64 115.8-64 115.8-64l-10.1 4c6.4-9.6 10.3-23 10.3-23Zm-37.4 40c4.9-.7 9.7-2 14.4-4 0 0-29.5 39.2-93 39.2-63.3 0-93-39-93-39 4.7 1.8 9.5 3.2 14.4 3.9-16-11.5-20.4-21.8-20.4-21.8 3.9 2.1 8 3.9 12.2 5.2C23.1 101.5 68.4 45 76.7 45s25.1 32.5 27.7 41.2A65.4 65.4 0 0 0 90.6 94s16.9-5.2 41.4-5.2a155 155 0 0 1 41.4 5.2s-7.3-5.5-13.8-7.8C162.2 77.5 179 45 187.3 45s53.6 56.5 31.5 116.5c4.2-1.3 8.3-3 12.2-5.2 0 0-4.3 10.3-20.4 21.8Z" fill="#fff"/><path d="M58.8 147.3c-3.2-16.6 3.8-32 15.4-34 11.7-2.1 23.6 9.7 26.7 26.3 3.1 16.8-3.8 32-15.4 34.1-11.7 2.2-23.6-9.7-26.7-26.3Zm104.3-7.7c3-16.6 15-28.5 26.7-26.3 11.8 2.1 18.5 17.4 15.5 34.1-3.1 16.7-15.2 28.5-26.8 26.3-11.5-2.1-18.6-17.4-15.4-34.1Z" fill="#fff"/><path d="M184 135.1a7.6 7.6 0 0 1 4-4.3 10 10 0 0 0-5.1-2.6c-7.3-1.4-14.8 6-16.7 16.4-2 10.5 2.3 20 9.7 21.2 7.3 1.3 14.7-6 16.6-16.3.7-3.6.7-7.3-.2-10.8-1.3 3.1-4.2 4.9-6.4 4-2.3-.7-3.2-4.2-2-7.6Zm-90.4-.5c0 3.4-2 6.1-4.4 6.1-2.5 0-4.5-3-4.6-6.4a7.2 7.2 0 0 1 2.2-5.4c-1.8-.8-3.8-1-5.7-.7-7.2 1.2-11.6 10.8-9.6 21.3 2 10.4 9.4 17.7 16.7 16.3 7.3-1.3 11.6-10.8 9.6-21.2-.6-3.6-2-7-4.2-10Z" fill="#000"/><path d="M156.5 190.7a21.1 21.1 0 0 1-21.5-10c-1.4-2.3-2.3-5-2.7-7.7h-.6a20.6 20.6 0 0 1-16 17.4 23 23 0 0 1-22.8-7.8 22.5 22.5 0 0 0 17.2 12.1 22.6 22.6 0 0 0 21.9-9.1 22.4 22.4 0 0 0 21.9 9.1 22.8 22.8 0 0 0 17.1-12 23 23 0 0 1-14.5 8Z" fill="#fff"/><path d="M132 165c-4 0-9.6 1.6-9 4.6.6 3 5.3 8.4 9 8.4s8.5-5.3 9-8.4c.5-3.1-5-4.6-9-4.6Z" fill="#FF1B3D"/></svg>
